<svg width="328" height="217" viewBox="0 0 328 217" fill="none" xmlns="http://www.w3.org/2000/svg">
<path opacity="0.3" d="M79.0851 192.595C118.51 192.595 150.47 160.635 150.47 121.21C150.47 81.7856 118.51 49.8255 79.0851 49.8255C39.6603 49.8255 7.7002 81.7856 7.7002 121.21C7.7002 160.635 39.6603 192.595 79.0851 192.595Z" fill="#E6E6E6"/>
<path opacity="0.3" d="M255.482 192.595C294.907 192.595 326.867 160.635 326.867 121.21C326.867 81.7856 294.907 49.8255 255.482 49.8255C216.057 49.8255 184.097 81.7856 184.097 121.21C184.097 160.635 216.057 192.595 255.482 192.595Z" fill="#E6E6E6"/>
<path d="M33.0649 112.613C33.0649 112.613 41.1037 74.693 61.3834 74.693C81.6631 74.693 92.4526 134.294 43.1134 140.78L33.0649 112.613Z" fill="#F4A28C"/>
<path opacity="0.1" d="M33.0649 112.613C33.0649 112.613 41.1037 74.693 61.3834 74.693C81.6631 74.693 92.4526 134.294 43.1134 140.78L33.0649 112.613Z" fill="#1D1D1F"/>
<path d="M128.404 5.73389H50.7971V143.652H128.404V5.73389Z" fill="#E6E6E6"/>
<path d="M122.091 16.9496H57.1001V120.124H122.091V16.9496Z" fill="white"/>
<path d="M107.82 90.0499H70.2141V105.65H107.82V90.0499Z" fill="#24285B"/>
<path opacity="0.1" d="M74.2435 86.2234C74.2435 86.2234 82.871 91.41 79.5621 99.0936C76.2532 106.777 66.1439 111.456 65.9916 121.556C65.8394 131.655 65.9916 143.652 65.9916 143.652H50.7666V120.165L74.2435 86.2234Z" fill="#1D1D1F"/>
<path d="M48.9294 98.5252C48.9294 98.5252 64.5807 82.5187 71.3406 83.9397C76.9231 85.1171 76.9333 96.2211 64.7736 105.458C62.3073 107.314 60.2682 109.679 58.7938 112.391C57.3195 115.103 56.4443 118.101 56.2273 121.18C55.8822 126.346 54.1973 132.487 48.9294 137.136C37.9065 146.91 29.7256 138.435 30.7914 125.24C31.8571 112.045 32.5676 108.137 48.9294 98.5252Z" fill="#F4A28C"/>
<path d="M55.0194 135.035L49.1425 216.468L0.869141 207.201L25.1378 125.981L55.0194 135.035Z" fill="#FFAA00"/>
<path opacity="0.1" d="M30.2939 212.855L40.7586 130.711L55.0193 135.035L49.1425 216.468L30.2939 212.855Z" fill="#1D1D1F"/>
<path d="M72.5791 13.5392C73.8852 13.5392 74.944 12.4804 74.944 11.1743C74.944 9.86815 73.8852 8.80933 72.5791 8.80933C71.2729 8.80933 70.2141 9.86815 70.2141 11.1743C70.2141 12.4804 71.2729 13.5392 72.5791 13.5392Z" fill="#A8A8A8"/>
<path d="M103.486 10.3522H80.6179C80.0349 10.3522 79.5623 10.8248 79.5623 11.4078V11.4484C79.5623 12.0314 80.0349 12.504 80.6179 12.504H103.486C104.069 12.504 104.541 12.0314 104.541 11.4484V11.4078C104.541 10.8248 104.069 10.3522 103.486 10.3522Z" fill="#A8A8A8"/>
<path d="M87.7633 138.942C91.9339 138.942 95.3149 135.562 95.3149 131.391C95.3149 127.22 91.9339 123.839 87.7633 123.839C83.5926 123.839 80.2117 127.22 80.2117 131.391C80.2117 135.562 83.5926 138.942 87.7633 138.942Z" fill="#A8A8A8"/>
<path d="M299.736 102.23C299.736 102.23 303.167 59.4477 281.162 55.8241C259.156 52.2006 256.416 114.552 275.264 115.486C294.113 116.42 299.736 102.23 299.736 102.23Z" fill="#F4A28C"/>
<path opacity="0.1" d="M275.264 115.486C294.123 116.42 299.736 102.23 299.736 102.23C299.736 102.23 303.167 59.4477 281.161 55.8242" fill="#1D1D1F"/>
<path d="M201.382 116.46H283.141V51.2566C283.193 49.8051 282.668 48.3921 281.681 47.3268C280.693 46.2615 279.324 45.6308 277.873 45.5726H201.382C197.322 45.5726 194.074 49.1048 194.074 53.4693V108.564C194.074 112.928 197.343 116.46 201.382 116.46Z" fill="#B3B3B3"/>
<path d="M200.766 95.2838L242.939 89.7167L232.923 13.8439L190.75 19.411L200.766 95.2838Z" fill="#FFAA00"/>
<path opacity="0.46" d="M203.814 90.7657L238.833 86.143L229.885 18.3606L194.867 22.9833L203.814 90.7657Z" fill="white"/>
<path d="M222.528 82.2658L264.701 76.6987L254.685 0.825904L212.513 6.39303L222.528 82.2658Z" fill="#FFAA00"/>
<path opacity="0.46" d="M225.568 77.7591L260.586 73.1364L251.638 5.35405L216.62 9.97672L225.568 77.7591Z" fill="white"/>
<path d="M231.574 86.9048L273.651 93.1557L284.897 17.4555L242.82 11.2046L231.574 86.9048Z" fill="#FFAA00"/>
<path opacity="0.46" d="M235.738 83.3982L270.676 88.5887L280.723 20.9605L245.784 15.77L235.738 83.3982Z" fill="white"/>
<path d="M283.141 51.2567V122.195H211.999C209.989 122.172 208.018 121.638 206.271 120.644C204.524 119.65 203.058 118.228 202.012 116.511C200.617 114.307 199.881 111.75 199.89 109.142V64.34C199.88 62.1556 200.396 60.0008 201.392 58.0571C202.357 56.0551 203.861 54.3612 205.734 53.1655C207.608 51.9697 209.777 51.3193 211.999 51.2871L283.141 51.2567Z" fill="#E6E6E6"/>
<path d="M220.292 94.0998H193.283V79.2909H220.292C222.254 79.2909 224.136 80.0705 225.524 81.4582C226.912 82.8458 227.691 84.7279 227.691 86.6903C227.692 87.6628 227.502 88.6261 227.131 89.525C226.76 90.4239 226.215 91.2408 225.528 91.929C224.84 92.6172 224.024 93.1631 223.126 93.5356C222.227 93.9081 221.264 94.0998 220.292 94.0998Z" fill="#24285B"/>
<path d="M218.089 90.4661C220.169 90.4661 221.855 88.7802 221.855 86.7005C221.855 84.6208 220.169 82.9348 218.089 82.9348C216.01 82.9348 214.324 84.6208 214.324 86.7005C214.324 88.7802 216.01 90.4661 218.089 90.4661Z" fill="#FFAA00"/>
<path opacity="0.1" d="M282.308 116.46C282.308 118.399 282.258 120.307 282.207 122.144H262.922C263.305 120.21 263.842 118.31 264.526 116.46C265.172 114.689 265.998 112.988 266.992 111.385C268.616 108.807 271.844 97.3985 269.763 88.0402C269.594 87.221 269.37 86.414 269.093 85.6245C268.906 85.0841 268.757 84.5313 268.646 83.9701C268.284 82.6524 268.282 81.2619 268.639 79.9428C268.996 78.6238 269.699 77.4244 270.676 76.4692C271.712 75.4736 272.937 74.6969 274.28 74.1855C274.717 74.0013 275.169 73.852 275.63 73.7389C281.425 77.535 282.501 98.4744 282.308 116.46Z" fill="#1D1D1F"/>
<path d="M294.732 92.76C294.732 92.76 288.774 71.1811 282.166 69.1612C276.716 67.4865 271.346 77.2 277.507 91.1664C278.772 93.985 279.416 97.0427 279.395 100.132C279.374 103.221 278.689 106.27 277.386 109.071C275.193 113.76 273.711 119.962 276.056 126.559C280.989 140.445 294.488 138.902 299.929 126.854C305.369 114.806 304.405 109.051 294.732 92.76Z" fill="#F4A28C"/>
<path d="M272.98 127.98L278.857 209.414L327.131 200.147L302.862 118.927L272.98 127.98Z" fill="#FFAA00"/>
<path opacity="0.1" d="M297.706 205.79L287.241 123.657L272.98 127.981L278.857 209.414L297.706 205.79Z" fill="#1D1D1F"/>
<path d="M135.692 60.7672C135.692 60.7672 155.494 46.5572 181.052 61.1732" stroke="#A8A8A8" stroke-width="2.03" stroke-linecap="round" stroke-linejoin="round" stroke-dasharray="1.01 5.07"/>
<g opacity="0.08">
<path opacity="0.08" d="M89.0118 76.591C100.627 76.591 110.043 67.1752 110.043 55.5602C110.043 43.9452 100.627 34.5294 89.0118 34.5294C77.3968 34.5294 67.981 43.9452 67.981 55.5602C67.981 67.1752 77.3968 76.591 89.0118 76.591Z" fill="#1D1D1F"/>
</g>
<path d="M89.0118 76.591C100.627 76.591 110.043 67.1752 110.043 55.5602C110.043 43.9452 100.627 34.5294 89.0118 34.5294C77.3968 34.5294 67.981 43.9452 67.981 55.5602C67.981 67.1752 77.3968 76.591 89.0118 76.591Z" fill="#FFAA00"/>
<path d="M182.514 56.6158L184.98 63.2032L176.738 66.1771" stroke="#A8A8A8" stroke-width="2.03" stroke-linecap="round" stroke-linejoin="round" stroke-dasharray="1.01 5.07"/>
<path d="M149.4 45.4001H151.5V35.6001H149.75C149.638 35.8101 149.498 36.0061 149.316 36.1881C148.994 36.5101 148.504 36.8321 147.72 36.9301V38.2601H149.4V45.4001ZM157.655 43.6501C156.605 43.6501 155.555 42.6001 155.555 40.5001C155.555 38.4001 156.605 37.3501 157.655 37.3501C158.705 37.3501 159.755 38.4001 159.755 40.5001C159.755 42.6001 158.705 43.6501 157.655 43.6501ZM157.655 45.6101C159.895 45.6101 161.855 43.6501 161.855 40.5001C161.855 37.3501 159.895 35.3901 157.655 35.3901C155.415 35.3901 153.455 37.3501 153.455 40.5001C153.455 43.6501 155.415 45.6101 157.655 45.6101ZM164.308 45.4001H166.058L172.218 35.6001H170.468L164.308 45.4001ZM171.168 44.2801C170.608 44.2801 170.188 43.8601 170.188 43.3001C170.188 42.7401 170.608 42.3201 171.168 42.3201C171.728 42.3201 172.148 42.7401 172.148 43.3001C172.148 43.8601 171.728 44.2801 171.168 44.2801ZM168.788 43.3001C168.788 44.5741 169.824 45.6101 171.168 45.6101C172.512 45.6101 173.548 44.5741 173.548 43.3001C173.548 42.0261 172.512 40.9901 171.168 40.9901C169.824 40.9901 168.788 42.0261 168.788 43.3001ZM164.378 37.7001C164.378 37.1401 164.798 36.7201 165.358 36.7201C165.918 36.7201 166.338 37.1401 166.338 37.7001C166.338 38.2601 165.918 38.6801 165.358 38.6801C164.798 38.6801 164.378 38.2601 164.378 37.7001ZM162.978 37.7001C162.978 38.9741 164.014 40.0101 165.358 40.0101C166.702 40.0101 167.738 38.9741 167.738 37.7001C167.738 36.4261 166.702 35.3901 165.358 35.3901C164.014 35.3901 162.978 36.4261 162.978 37.7001Z" fill="#1D1D1F"/>
<path d="M82.3335 64V49.4027C82.3334 49.0924 82.4364 48.791 82.6262 48.5456C82.816 48.3002 83.082 48.1248 83.3823 48.047C83.6826 47.9692 84.0003 47.9933 84.2854 48.1156C84.5705 48.2379 84.8069 48.4514 84.9575 48.7227L93.0428 63.2773C93.1934 63.5486 93.4298 63.7621 93.7149 63.8844C94.0001 64.0067 94.3177 64.0308 94.618 63.953C94.9183 63.8752 95.1843 63.6998 95.3741 63.4544C95.564 63.209 95.6669 62.9076 95.6668 62.5973V48" stroke="white" stroke-width="2" stroke-linecap="round" stroke-linejoin="round"/>
<path d="M79.6667 53.3333H98.3334" stroke="white" stroke-width="2" stroke-linecap="round" stroke-linejoin="round"/>
<path d="M79.6667 58.6667H98.3334" stroke="white" stroke-width="2" stroke-linecap="round" stroke-linejoin="round"/>
<path d="M267 86.5C267 76.835 259.165 69 249.5 69C239.835 69 232 76.835 232 86.5C232 96.165 239.835 104 249.5 104C259.165 104 267 96.165 267 86.5Z" fill="#FFAA00"/>
<path d="M244.951 79.3543L241.966 81.9297C241.819 82.0556 241.864 82.2966 242.044 82.3592L247.953 84.4423C248.036 84.4725 248.128 84.4531 248.195 84.3927L251.902 81.0652L245.172 79.3017C245.093 79.2823 245.013 79.3004 244.951 79.3543ZM250.4 83.2751L248.413 85.1596C248.344 85.2238 248.249 85.2441 248.163 85.2123L243.177 83.3813C243.055 83.337 242.92 83.3969 242.868 83.5179L241.23 87.4093C241.184 87.5156 241.217 87.6413 241.308 87.7113L246.402 91.5878C246.526 91.6823 246.66 91.7637 246.799 91.8295L250.595 83.4211C250.739 83.103 250.649 83.0384 250.4 83.2751ZM257.747 89.3804L257.728 85.3841C257.727 85.303 257.689 85.2268 257.623 85.1797L251.945 81.0856L251.874 86.1295C251.872 86.2206 251.918 86.303 251.993 86.3498L257.377 89.5982C257.54 89.6978 257.749 89.5763 257.747 89.3804ZM255.883 89.3797L251.286 86.6869C251.206 86.6402 251.158 86.5524 251.163 86.4583L251.277 83.6892C251.292 83.3396 251.185 83.3139 251.043 83.6302L247.247 92.0385C247.386 92.1043 247.534 92.1561 247.685 92.1914L253.873 93.6412C253.985 93.6668 254.099 93.613 254.149 93.5066L255.983 89.7074C256.038 89.5899 255.995 89.4463 255.883 89.3797Z" fill="black"/>
</svg>
