<svg width="408" height="132" viewBox="0 0 408 132" fill="none" xmlns="http://www.w3.org/2000/svg">
<path opacity="0.18" d="M127.758 63.8065C127.758 74.9597 124.815 85.9155 119.227 95.5678C113.639 105.22 105.604 113.227 95.9315 118.781C86.2595 124.335 75.2934 127.239 64.1403 127.2C52.9872 127.16 42.0418 124.179 32.4092 118.557L34.9971 120.903L3.89154 131.578L14.3948 102.787C8.18692 94.8278 3.96968 85.501 2.09408 75.5828C0.218472 65.6646 0.738747 55.4419 3.61161 45.7654C6.48447 36.0889 11.6268 27.2385 18.6107 19.9506C25.5947 12.6627 34.2181 7.14818 43.7636 3.86594C53.309 0.583687 63.5003 -0.371363 73.4893 1.08026C83.4784 2.53188 92.9763 6.3482 101.193 12.2116C109.409 18.075 116.106 25.816 120.727 34.7903C125.348 43.7645 127.758 53.7126 127.758 63.8065V63.8065Z" fill="#FFAA00"/>
<path d="M53.5976 85.1566C53.5976 85.1566 36.1696 85.5104 27.3141 100.057C27.3141 100.057 22.6942 120.73 23.2704 125.138L34.6937 119.962C35.0374 120.902 51.8184 127.534 66.4462 126.877C93.4273 125.674 105.649 112.006 105.649 112.006C105.649 112.006 102.788 92.607 86.7958 88.1995C70.8032 83.7919 53.5976 85.1566 53.5976 85.1566Z" fill="#FFAA00"/>
<path d="M53.4765 84.2871C53.4765 84.2871 49.7058 84.8633 49.8271 87.5928C49.9484 90.3222 50.4033 98.5409 54.639 96.5696C58.8747 94.5983 62.4634 88.634 62.4634 88.634L53.4765 84.2871Z" fill="white"/>
<path d="M73.0569 84.2871C73.0569 84.2871 76.8276 84.8633 76.7164 87.5928C76.6052 90.3222 76.1301 98.5409 71.9045 96.5696C67.6789 94.5983 64.0801 88.634 64.0801 88.634L73.0569 84.2871Z" fill="white"/>
<path d="M39.2222 44.9429C39.2222 44.9429 34.936 72.0655 45.7122 75.5329C46.8876 76.2317 48.1937 76.6819 49.55 76.8558C50.9062 77.0296 52.2837 76.9235 53.5973 76.5438V85.1163C53.5973 85.1163 64.4848 93.3451 73.4111 84.5401V62.472C73.4111 62.472 72.4002 48.9764 69.701 50.4119C69.0844 50.7556 63.6356 50.1895 62.746 40.3029C62.746 40.3029 50.231 34.7429 44.4385 38.5641C38.646 42.3853 39.2222 44.9429 39.2222 44.9429Z" fill="#F7AF87"/>
<path d="M36.5836 44.033C37.2388 45.2228 38.1269 46.2683 39.1951 47.1072C40.2633 47.9461 41.4896 48.5612 42.8007 48.9157C44.1223 49.2308 45.5096 49.1198 46.7643 48.5987C48.0189 48.0776 49.0766 47.173 49.7861 46.0144C50.8686 47.5341 52.4723 48.6026 54.2917 49.0164C56.1111 49.4303 58.0191 49.1605 59.6525 48.2586C61.088 50.2804 63.8276 50.8364 66.2841 50.6848C69.4333 50.5431 72.4323 49.2977 74.7554 47.1668C75.8846 46.0876 76.7466 44.76 77.273 43.2895C77.7994 41.819 77.9758 40.246 77.7882 38.6954C77.2524 35.0663 74.5128 32.1447 71.5812 29.9511C66.947 26.4197 61.4539 24.1897 55.6695 23.4914C50.4432 22.9051 42.0931 23.4914 38.0899 27.4339C34.0867 31.3764 33.7228 39.2211 36.5836 44.033Z" fill="#DD6034"/>
<path d="M53.5977 76.6248C53.5977 76.6248 60.1989 74.886 62.6352 71.8735C62.6352 71.8735 59.2688 85.0861 53.5977 85.1973V76.6248Z" fill="url(#paint0_linear)"/>
<path d="M66.9916 46.8837L67.4667 56.2346L69.347 53.6669C69.6301 53.2726 70.0142 52.8481 70.4893 52.9289C70.9645 53.0098 71.0757 53.3434 71.2374 53.6669C71.9705 55.1737 72.2315 56.8669 71.9862 58.5245C71.7408 60.1822 71.0007 61.7272 69.8626 62.9571C69.4619 63.3026 69.1352 63.7255 68.9022 64.2005C68.7893 64.6118 68.7618 65.0419 68.8214 65.4642C69.0134 68.1936 73.0368 71.3982 73.7242 69.4168C74.4117 67.4354 74.5431 65.2822 75.1901 63.2806C76.2138 60.7058 77.6513 58.3155 79.446 56.2043C81.2582 54.0858 82.6325 51.6291 83.4896 48.9763C84.1568 46.2873 83.6311 43.1231 81.4678 41.3541C81.0615 41.0944 80.7166 40.7494 80.4569 40.3432C80.3336 40.0202 80.2685 39.6779 80.2648 39.3322C80.025 35.9739 78.6364 32.8004 76.3324 30.3453C75.1733 29.1327 73.7704 28.1796 72.2161 27.5488C70.6618 26.918 68.9914 26.6239 67.3151 26.6858C66.7473 26.6893 66.1875 26.8206 65.6774 27.07C65.2128 27.3915 64.8208 27.8068 64.5265 28.2891C64.2323 28.7714 64.0423 29.31 63.969 29.8702C62.8873 34.9247 65.2326 39.9792 66.1121 45.1146" fill="#DD6034"/>
<path opacity="0.18" d="M267.97 63.8063C267.968 74.9598 265.024 85.9153 259.434 95.5673C253.845 105.219 245.809 113.226 236.136 118.78C226.464 124.333 215.497 127.237 204.344 127.198C193.191 127.159 182.245 124.178 172.611 118.557L175.199 120.902L144.063 131.577L154.557 102.787C148.352 94.8269 144.137 85.5003 142.264 75.583C140.39 65.6656 140.912 55.4443 143.786 45.7694C146.66 36.0945 151.803 27.2457 158.786 19.9594C165.77 12.673 174.393 7.15965 183.937 3.87807C193.481 0.596484 203.671 -0.358462 213.659 1.09268C223.647 2.54382 233.144 6.35908 241.36 12.221C249.576 18.083 256.273 25.8222 260.894 34.7947C265.516 43.7672 267.928 53.7136 267.93 63.8063H267.97Z" fill="#FFAA00"/>
<path d="M193.517 85.1565C193.517 85.1565 176.089 85.5103 167.233 100.057C167.233 100.057 161.168 120.902 161.774 125.33L175.239 120.922C181.952 124.673 192.03 127.544 206.365 126.897C233.397 125.694 245.568 111.996 245.568 111.996C245.568 111.996 242.707 92.5968 226.715 88.1892C210.722 83.7817 193.517 85.1565 193.517 85.1565Z" fill="#FFAA00"/>
<path d="M231.406 61.9663C233.6 50.7654 235.571 33.4789 227.858 29.9408L222.803 29.7082C222.803 29.7082 219.093 21.1156 204.233 22.5106C189.373 23.9057 174.391 36.4308 181.164 56.7803C184.682 67.3342 178.435 82.6898 178.435 82.6898L200.29 82.609L234.034 81.5374C231.014 75.485 230.09 68.601 231.406 61.9663V61.9663Z" fill="#404040"/>
<path d="M228.09 44.7307C228.09 44.7307 232.376 71.8533 221.6 75.3308C220.425 76.0307 219.119 76.4815 217.763 76.6554C216.406 76.8293 215.029 76.7226 213.715 76.3417V84.9243C213.715 84.9243 202.828 93.1531 193.901 84.338V62.1991C193.901 62.1991 194.912 48.7136 197.611 50.1491C198.228 50.4827 203.677 49.9166 204.566 40.0401C204.566 40.0401 217.081 34.47 222.874 38.3013C228.666 42.1326 228.09 44.7307 228.09 44.7307Z" fill="#F7AF87"/>
<path d="M213.715 76.3719C213.715 76.3719 207.114 74.6331 204.678 71.6206C204.678 71.6206 208.034 84.8331 213.715 84.9545V76.3719Z" fill="url(#paint1_linear)"/>
<path d="M219.123 36.8656C215.777 36.8656 212.138 37.3408 209.783 39.7063C206.871 42.6278 206.942 47.278 205.668 51.2003C204.728 54.1887 202.845 56.792 200.3 58.6203C199.026 59.5184 197.586 60.1535 196.064 60.4885C194.542 60.8235 192.968 60.8517 191.435 60.5714C191.12 60.5382 190.815 60.4414 190.539 60.2867C190.262 60.132 190.02 59.9228 189.827 59.6717C189.614 59.218 189.541 58.7115 189.615 58.216C189.908 52.656 190.565 46.9039 193.436 42.1426C195.038 39.5097 197.251 37.3011 199.886 35.7031C201.417 34.7256 203.141 34.0911 204.94 33.843C208.479 33.4387 211.916 35.0157 215.12 36.5624" fill="#404040"/>
<path d="M193.406 84.2871C193.406 84.2871 189.635 84.8633 189.757 87.5928C189.878 90.3222 190.333 98.5409 194.569 96.5696C198.804 94.5983 202.393 88.634 202.393 88.634L193.406 84.2871Z" fill="white"/>
<path d="M212.987 84.2871C212.987 84.2871 216.757 84.8633 216.646 87.5928C216.535 90.3222 216.06 98.5409 211.834 96.5696C207.609 94.5983 204.01 88.634 204.01 88.634L212.987 84.2871Z" fill="white"/>
<path d="M202.989 101.574C204.145 101.574 205.082 100.637 205.082 99.4812C205.082 98.3255 204.145 97.3887 202.989 97.3887C201.833 97.3887 200.896 98.3255 200.896 99.4812C200.896 100.637 201.833 101.574 202.989 101.574Z" fill="white"/>
<path d="M202.989 108.974C204.145 108.974 205.082 108.037 205.082 106.881C205.082 105.725 204.145 104.789 202.989 104.789C201.833 104.789 200.896 105.725 200.896 106.881C200.896 108.037 201.833 108.974 202.989 108.974Z" fill="white"/>
<path d="M202.989 116.374C204.145 116.374 205.082 115.437 205.082 114.281C205.082 113.125 204.145 112.188 202.989 112.188C201.833 112.188 200.896 113.125 200.896 114.281C200.896 115.437 201.833 116.374 202.989 116.374Z" fill="white"/>
<path opacity="0.18" d="M407.01 63.8063C407.01 74.9595 404.068 85.9152 398.48 95.5676C392.892 105.22 384.856 113.227 375.184 118.781C365.512 124.335 354.546 127.239 343.393 127.199C332.24 127.16 321.294 124.179 311.662 118.557L314.24 120.902L283.144 131.577L293.678 102.787C287.473 94.8269 283.258 85.5003 281.385 75.583C279.511 65.6656 280.033 55.4443 282.907 45.7694C285.781 36.0945 290.924 27.2457 297.907 19.9594C304.891 12.673 313.514 7.15965 323.058 3.87807C332.603 0.596484 342.793 -0.358462 352.78 1.09268C362.768 2.54382 372.265 6.35908 380.481 12.221C388.697 18.083 395.394 25.8222 400.016 34.7947C404.637 43.7672 407.049 53.7136 407.051 63.8063H407.01Z" fill="#FFAA00"/>
<path d="M332.567 85.1565C332.567 85.1565 315.139 85.5103 306.233 100.057C306.233 100.057 300.168 120.902 300.774 125.33L314.239 120.922C320.952 124.673 331.031 127.544 345.375 126.897C372.397 125.694 384.568 111.996 384.568 111.996C384.568 111.996 381.707 92.5968 365.715 88.1892C349.722 83.7817 332.567 85.1565 332.567 85.1565Z" fill="#FFAA00"/>
<path d="M333.881 70.3164C333.881 70.3164 333.659 82.6393 332.567 85.1565C331.475 87.6736 341.129 95.3666 351.016 88.3408L351.673 85.2576C351.673 85.2576 349.924 76.6952 351.016 69.2246C352.108 61.754 333.881 70.3164 333.881 70.3164Z" fill="#F7AF87"/>
<path d="M333.729 71.9339C333.729 71.9339 335.458 80.2132 342.777 80.7894C350.096 81.3656 350.692 78.8889 350.692 78.8889L350.874 68.2744L333.729 71.9339Z" fill="url(#paint2_linear)"/>
<path d="M322.752 45.2864C322.331 44.9817 321.849 44.7731 321.338 44.6753C320.828 44.5775 320.303 44.5928 319.8 44.7203C319.409 44.8833 319.063 45.1361 318.789 45.4582C317.252 47.0858 317.333 49.6535 317.778 51.8471C318.052 53.0779 318.424 54.2847 318.89 55.4561C319.077 56.0001 319.354 56.5092 319.709 56.9623C320.79 58.2664 322.741 58.4383 324.409 58.2462C324.911 58.2463 325.405 58.1272 325.852 57.8987C326.298 57.6702 326.684 57.3389 326.977 56.932C327.13 56.5833 327.219 56.2101 327.24 55.8301C327.665 51.4124 326.623 47.6317 322.752 45.2864Z" fill="#F7AF87"/>
<path d="M364.532 47.0858C365.775 46.2164 367.392 45.5492 368.787 46.1457C369.334 46.4213 369.798 46.835 370.135 47.3457C370.472 47.8564 370.67 48.4464 370.708 49.0571C370.778 50.2823 370.563 51.507 370.081 52.6357C369.605 54.0867 368.854 55.4323 367.868 56.5984C366.861 57.7528 365.45 58.4765 363.925 58.6202C363.164 58.6774 362.402 58.5178 361.727 58.1601C361.053 57.8023 360.494 57.2609 360.114 56.5984C359.743 55.7097 359.57 54.7505 359.608 53.7881C359.539 53.0439 359.625 52.2934 359.861 51.5843C360.458 50.1185 363.258 47.9653 364.532 47.0858Z" fill="#F7AF87"/>
<path d="M363.248 51.2409C361.671 64.4535 354.322 75.3308 343.323 75.3308C332.324 75.3308 323.408 64.5444 323.408 51.2409C323.408 37.9374 330.485 22.9355 341.483 22.9355C352.482 22.9355 366.463 24.2194 363.248 51.2409Z" fill="#F7AF87"/>
<path d="M323.418 45.1655L323.6 48.1173C323.6 48.5823 323.752 49.1282 324.206 49.2596C324.661 49.391 325.106 48.5722 325.116 47.9657C325.116 45.5395 324.358 42.7999 325.864 40.8893C326.241 40.5164 326.58 40.1066 326.875 39.6661C327.502 38.4025 326.552 36.7952 327.118 35.5012C327.451 34.7633 328.189 34.3083 328.725 33.6917C329.382 32.7281 329.884 31.6672 330.211 30.5478C330.333 30.1712 330.57 29.8424 330.889 29.6076C331.192 29.481 331.512 29.396 331.839 29.3549C333.072 29.0415 333.8 27.7779 334.872 27.1208C335.841 26.6381 336.927 26.4351 338.005 26.5345C342.221 26.6659 346.608 28.162 350.51 26.5345C352.114 28.8133 354.551 30.368 357.293 30.8611C357.522 30.8747 357.743 30.9517 357.93 31.0835C358.111 31.3009 358.229 31.5628 358.274 31.8417C358.677 32.7305 359.246 33.5336 359.952 34.2072C362.388 37.24 362.338 41.4352 362.156 45.3272L361.873 51.5038L364.026 47.8848C364.248 47.4623 364.538 47.0797 364.885 46.7526C365.28 46.419 365.805 46.2168 366.048 45.7417C366.15 45.5048 366.208 45.2513 366.22 44.9936L366.745 39.6965C366.9 38.7421 366.865 37.7667 366.644 36.8255C366.462 36.2392 366.139 35.7034 365.957 35.1171C365.754 34.0403 365.724 32.9382 365.866 31.8518C365.936 31.3077 365.887 30.7549 365.723 30.2314C365.559 29.7079 365.283 29.2261 364.916 28.8191C365.623 26.4536 366.29 23.9465 365.734 21.5406C365.178 19.1346 362.944 16.941 360.508 17.3049C360.139 17.4029 359.755 17.4303 359.376 17.3858C359.056 17.2761 358.764 17.1005 358.517 16.8702C356.817 15.5315 354.743 14.7543 352.583 14.6462C350.038 14.4845 347.485 14.4845 344.94 14.6462C339.218 15.1213 333.214 13.9386 327.866 16.0008C326.578 16.4756 325.392 17.189 324.368 18.1035C323.312 19.1813 322.404 20.3949 321.669 21.7124C321.259 22.2985 320.954 22.952 320.769 23.6433C320.683 24.4024 320.683 25.1688 320.769 25.9279C320.769 28.4653 319.475 30.9825 319.9 33.4592C320.052 34.3791 320.426 35.2384 320.557 36.1583C320.628 36.9959 320.628 37.8379 320.557 38.6755C320.487 40.7944 320.859 42.9048 321.649 44.8723C321.78 45.2059 321.993 45.59 322.356 45.6204C322.72 45.6507 323.094 44.7712 323.418 45.1655Z" fill="#404040"/>
<path d="M326.319 67.3646C326.592 68.5871 327.013 69.7719 327.573 70.8927C329.009 73.3296 331.273 75.1699 333.952 76.0786C336.615 76.9643 339.404 77.4115 342.211 77.4029C345.977 77.5044 349.745 77.2812 353.472 76.7357C354.807 76.5436 354.706 76.2505 355.777 75.4518C357.506 74.1579 359.487 71.853 359.821 69.72C360.892 63.3816 362.682 54.5564 362.419 48.1271C360.7 51.3013 360.72 58.0946 358.223 60.7027C356.869 62.1079 354.847 62.5931 352.926 62.9065C346.747 63.9299 340.435 63.8443 334.285 62.6538C332.425 62.443 330.667 61.6908 329.231 60.4904C327.047 58.3372 327.209 54.8698 326.734 51.8371C326.542 50.5027 326.026 48.5112 324.56 48.0664C324.115 50.7251 324.722 53.6365 324.783 56.3154C324.873 60.0449 325.388 63.752 326.319 67.3646V67.3646Z" fill="#404040"/>
<path d="M321.386 49.5224C321.39 49.2188 321.353 48.9161 321.275 48.6227C321.234 48.4767 321.148 48.3469 321.031 48.251C320.913 48.1552 320.769 48.0978 320.618 48.0869C320.294 48.0869 320.062 48.3902 319.91 48.6732C319.366 49.8722 319.312 51.2358 319.758 52.4742C320.09 53.7375 320.87 54.837 321.952 55.5676C322.217 55.7648 322.531 55.8836 322.86 55.9105C323.189 55.9373 323.519 55.871 323.812 55.7193C324.823 55.0217 324.429 52.9797 323.519 52.4136C322.963 52.0699 322.508 52.1103 322.073 51.5038C321.657 50.9237 321.419 50.2354 321.386 49.5224V49.5224Z" fill="url(#paint3_linear)"/>
<path d="M366.351 49.5224C366.347 49.2188 366.385 48.9161 366.463 48.6227C366.504 48.4767 366.589 48.3469 366.706 48.251C366.824 48.1552 366.968 48.0978 367.12 48.0869C367.443 48.0869 367.676 48.3902 367.827 48.6732C368.371 49.8722 368.425 51.2358 367.979 52.4742C367.648 53.7375 366.868 54.837 365.785 55.5676C365.521 55.7648 365.206 55.8836 364.877 55.9105C364.548 55.9373 364.218 55.871 363.925 55.7193C362.914 55.0217 363.319 52.9797 364.218 52.4136C364.774 52.0699 365.229 52.1103 365.664 51.5038C366.08 50.9237 366.319 50.2354 366.351 49.5224V49.5224Z" fill="url(#paint4_linear)"/>
<path d="M355.069 80.1121C354.057 79.6535 352.94 79.4721 351.834 79.5864C345.011 79.7683 337.955 81.1836 331.535 78.8687C330.435 79.9371 329.627 81.2703 329.19 82.7404C328.533 85.8439 331.151 88.725 333.982 90.1402C338.763 92.5462 344.364 92.4957 349.701 92.1621C351.794 92.0407 354.058 91.8285 355.615 90.4132C358.092 88.2094 358.223 81.8811 355.069 80.1121Z" fill="#FFAA00"/>
<path d="M329.059 85.0454C329.059 85.0454 326.855 90.3122 337.844 90.5346C337.844 90.5346 326.855 90.757 323.782 93.1731C320.709 95.5892 313.016 99.3194 312.582 104.162C312.147 109.004 309.498 121.954 309.498 121.954L300.754 125.31L306.213 100.037C308.8 96.115 312.161 92.7624 316.09 90.1846C320.018 87.6067 324.431 85.858 329.059 85.0454V85.0454Z" fill="url(#paint5_linear)"/>
<defs>
<linearGradient id="paint0_linear" x1="60.4516" y1="87.9368" x2="52.9204" y2="57.5692" gradientUnits="userSpaceOnUse">
<stop stop-opacity="0"/>
<stop offset="0.99"/>
</linearGradient>
<linearGradient id="paint1_linear" x1="10531.7" y1="2764.79" x2="10668.9" y2="2389.81" gradientUnits="userSpaceOnUse">
<stop stop-opacity="0"/>
<stop offset="0.99"/>
</linearGradient>
<linearGradient id="paint2_linear" x1="6291.43" y1="2749.09" x2="6331.53" y2="1926.79" gradientUnits="userSpaceOnUse">
<stop stop-opacity="0"/>
<stop offset="0.99"/>
</linearGradient>
<linearGradient id="paint3_linear" x1="1928.13" y1="1357.23" x2="1978.24" y2="1352.64" gradientUnits="userSpaceOnUse">
<stop stop-opacity="0"/>
<stop offset="0.99"/>
</linearGradient>
<linearGradient id="paint4_linear" x1="4980.06" y1="1357.23" x2="4929.97" y2="1352.65" gradientUnits="userSpaceOnUse">
<stop stop-opacity="0"/>
<stop offset="0.99"/>
</linearGradient>
<linearGradient id="paint5_linear" x1="12626.2" y1="9849.16" x2="11126.7" y2="5084.57" gradientUnits="userSpaceOnUse">
<stop stop-opacity="0"/>
<stop offset="0.99"/>
</linearGradient>
</defs>
</svg>
